<?xml version="1.0" encoding="UTF-8"?>
<svg id="logo" xmlns="http://www.w3.org/2000/svg" version="1.1" viewBox="0 0 257.59 261.74">
  <defs>
    <style>
      .cls-1 {
        fill: #e6693d;
        stroke-width: 0px;
      }
    </style>
  </defs>
  <path class="cls-1" d="M159.54,24.18c-.02.07-.05.18-.09.32.03-.11.06-.21.09-.32Z"/>
  <path class="cls-1" d="M184.26,219.58c-1.37,0-2.77,0-4.13,0h-15.56v-4h15.57c2.68.01,5.52.02,7.92,0,5.86-.04,10.33-.68,15.87-3.84,4-2.29,6.74-5.24,8.14-8.77,1.63-4.11,1.76-8.88,1.76-13.42v-7.49c0-1.64,1.33-2.98,2.97-2.98,1.68,0,3.21-.5,4.31-1.41,1.57-1.3,1.51-4.1.42-5.64-.54-.75-1.36-1.39-2.23-2.06-.63-.48-1.28-.99-1.89-1.58-2.27-2.2-3.58-5.4-3.58-8.76v-52.41h4v52.41c0,2.29.86,4.44,2.36,5.89.45.44.99.85,1.55,1.29,1.01.78,2.17,1.67,3.05,2.91,2.14,3.01,2.21,8.29-1.12,11.04-1.57,1.3-3.62,2.1-5.83,2.29v6.51c0,4.92-.16,10.12-2.04,14.89-1.74,4.39-5.06,8.02-9.87,10.77-6.27,3.58-11.47,4.33-17.83,4.37-1.19,0-2.49,0-3.82,0Z"/>
  <g>
    <path class="cls-1" d="M98.75,195.7l87.87-111.06-9.05-6.56s-27.78-17.86-18.12-53.57c-1.85,6.2-28.72,77.22-141.63,8.01l93.86,74.26c2.54-1.7,5.6-2.7,8.89-2.7,8.84,0,16,9.53,16,16,0,8.84-7.16,16-16,16s-16-7.16-16-16c0-2.68.67-5.19,1.83-7.41L13.25,38.96c27,28.83,70.35,89.71,19.92,144.4,22.4-24.29,56.34,5.8,56.34,5.8l9.24,6.54Z"/>
    <path class="cls-1" d="M193.02,89.27l-87.82,110.99,48.26,34.15c8.84-3.32,16.6-18.85,16.6-18.85,5.45-10.89-2.33-19.93-8.31-28.32-10.12-14.2-5.3-43.94,15.93-44.43,3.95-.09,7.77,1.31,11.69,1.8,11.08,1.4,21.62-4.31,28.19-12.55v-25l-24.54-17.8Z"/>
  </g>
  <path class="cls-1" d="M153.09,233.73l-.05-3.12s.02-.04.04-.04l26.96-.43c1.4-.02,2.53-1.17,2.53-2.57v-9.46s.02-.04.04-.04h3.91s.04.02.04.04v9.46c0,3.57-2.9,6.52-6.47,6.57l-26.16.42c-.46,0-.84-.36-.85-.82Z"/>
  <path class="cls-1" d="M177.53,182.13l-3.4-8.11,11.6-6.04-12.07-5.9,3.82-8.02,18.41,12.22c1.28.85,1.28,2.72,0,3.57l-18.37,12.27Z"/>
  <path class="cls-1" d="M214.57,193.07l-20.13-7.06s-4.87,19.93,18.63,19.5l1.5-12.44Z"/>
</svg>