<?xml version="1.0" encoding="UTF-8"?>
<svg id="logo" xmlns="http://www.w3.org/2000/svg" viewBox="0 0 264.16 264.16">
  <defs>
    <style>
      .cls-1 {
        fill: #e5693d;
        stroke-width: 0px;
      }
    </style>
  </defs>
  <path class="cls-1" d="M151.45,24.59c-.02.07-.05.18-.09.32.03-.11.06-.21.09-.32Z"/>
  <path class="cls-1" d="M90.66,196.11l87.87-111.06-9.05-6.56s-27.78-17.86-18.12-53.57c-1.85,6.2-28.72,77.22-141.63,8.01l93.86,74.26c2.54-1.7,5.6-2.7,8.89-2.7,8.84,0,16,9.53,16,16,0,8.84-7.16,16-16,16s-16-7.16-16-16c0-2.68.67-5.19,1.83-7.41L5.16,39.37c27,28.83,70.35,89.71,19.92,144.4,22.4-24.29,56.34,5.8,56.34,5.8l9.24,6.54Z"/>
  <path class="cls-1" d="M238.18,217.52c-23.75,30.71-67.92,36.34-98.64,12.57l-39.42-27.41,87.82-111,37.8,27.38c30.72,23.77,36.2,67.75,12.44,98.46Z"/>
</svg>