<?xml version="1.0" encoding="UTF-8"?>
<svg xmlns="http://www.w3.org/2000/svg" viewBox="0 0 2114.28 2114.28">
  <defs>
    <style>
      .cls-1 {
        fill: #fff8f0;
      }

      .cls-1, .cls-2 {
        stroke-width: 0px;
      }

      .cls-2 {
        fill: #dd773e;
      }
    </style>
  </defs>
  <g id="Layer_1" data-name="Layer 1">
    <path class="cls-2" d="M1473.29,906.49c10.97-13.82,23.35-25.48,37.17-35.01,13.82-9.53,28.23-17.15,43.24-22.87,15.01-5.72,30.26-9.88,45.74-12.5,15.49-2.62,30.37-3.94,44.67-3.94,39.55,0,76,6.2,109.34,18.58,33.36,12.39,62.18,30.14,86.47,53.24,24.3,23.12,43.24,51.1,56.82,83.97,13.58,32.88,20.37,69.57,20.37,110.06s-6.79,77.18-20.37,110.06c-13.58,32.87-32.52,60.87-56.82,83.97-24.3,23.12-53.12,40.87-86.47,53.24-33.34,12.39-69.79,18.58-109.34,18.58-34.77,0-68.61-7.15-101.48-21.44-32.87-14.29-60.03-36.44-81.47-66.46l92.91-69.32c11.43,17.15,25.97,30.5,43.59,40.02,17.63,9.54,37.88,14.29,60.74,14.29,20.01,0,38.72-4.04,56.1-12.15,17.4-8.09,32.52-19.41,45.38-33.95,12.87-14.52,22.99-31.67,30.37-51.45,7.4-19.77,11.08-41.56,11.08-65.39s-3.68-45.02-11.08-65.03c-7.38-20.01-17.62-37.28-30.73-51.81-13.1-14.53-28.58-25.84-46.45-33.95-17.86-8.1-37.28-12.15-58.25-12.15s-39.42,3.57-55.38,10.72c-15.96,7.15-29.41,17.4-40.38,30.72l-85.76-70.03Z"/>
  </g>
  <g id="Layer_3" data-name="Layer 3">
    <path class="cls-2" d="M1574.11,692.57c28.77,0,52.1,23.32,52.1,52.1v479.34c-1.85,341.4-279.19,617.58-621.02,617.58s-619.17-276.18-621.02-617.58v-479.34c0-28.77,23.32-52.1,52.1-52.1h1137.85Z"/>
    <path class="cls-2" d="M1359.63,443.9l-886.91,198.26c-36.81,8.23-73.32-14.94-81.55-51.75l-9.65-43.17c-8.23-36.81,14.94-73.32,51.75-81.55l886.91-198.26,39.45,176.46Z"/>
    <path class="cls-2" d="M1358.43,262.08l216.49,15.66c34.59,2.5,41.68,34.24,11.45,51.24l-189.21,106.35c-2.44,1.37-5.65.7-6.09-1.27l-37.61-168.24c-.44-1.97,2.19-3.94,4.97-3.74Z"/>
    <path class="cls-1" d="M1339.91,1425.43c0,164.56-149.86,297.96-334.73,297.96s-334.73-133.4-334.73-297.96h669.45Z"/>
  </g>
  <g id="Layer_5" data-name="Layer 5">
    <ellipse class="cls-1" cx="727.54" cy="1034.62" rx="159.62" ry="168.04"/>
    <path class="cls-1" d="M1333.69,1252.07l-241.93-144.72-5.12-134.49,246.31-155.68,51.89,124.25-179.07,93.56,187.84,91.36-59.93,125.72Z"/>
  </g>
</svg>